<svg xmlns="http://www.w3.org/2000/svg" viewBox="0 0 400 360" role="img" aria-label="Brain TDS Logistics logo">
  <defs>
    <linearGradient id="bluegrad" x1="0" y1="0" x2="0" y2="1">
      <stop offset="0%" stop-color="#39b5ff" />
      <stop offset="100%" stop-color="#1a9ae8" />
    </linearGradient>
    <linearGradient id="redgrad" x1="0" y1="0" x2="1" y2="0">
      <stop offset="0%" stop-color="#e02d2d" />
      <stop offset="100%" stop-color="#c21d1d" />
    </linearGradient>
  </defs>
  <rect width="400" height="360" rx="32" fill="#ffffff" />
  <path d="M180 74c0-20 17-36 38-36s38 16 38 36c0 20-17 36-38 36s-38-16-38-36Z" fill="url(#bluegrad)" />
  <path d="M128 98c0-16 12-29 28-29h14l18-37c4-9 13-15 22-14l28 4c9 1 16 8 15 17l-5 24c-1 3-4 6-7 7l-3 0-18-3-18-4-17 3c-9 2-16 9-16 18v5Z" fill="url(#bluegrad)" />
  <path d="M86 176c0-12 12-21 26-21h18l22-42c6-12 18-19 31-17l38 5c13 2 22 14 20 26l-5 36c-1 4-4 8-8 9l-4 0-25-4-24-6-18 2c-11 2-20 12-20 23v7Z" fill="url(#bluegrad)" />
  <path d="M70 196c0 0 64-11 105-3 16 3 30 12 33 28 4 24-14 40-34 45-24 6-57 4-90-14-18-10-27-27-27-44 0-10 5-19 13-20Z" fill="url(#bluegrad)" opacity="0.9" />
  <path d="M50 236c0 0 98-16 151-4" fill="none" stroke="url(#redgrad)" stroke-width="34" stroke-linecap="round" stroke-linejoin="round" />
  <path d="M120 278c40-7 80-20 110-36" fill="none" stroke="url(#redgrad)" stroke-width="28" stroke-linecap="round" />
  <path d="M100 172l220 12 2 2c6 8 10 18 10 28 0 21-17 38-38 38H122c-20 0-36-16-36-36 0-16 10-29 24-34Z" fill="url(#bluegrad)" opacity="0.95" />
  <path d="M120 140c0-24 22-44 48-44s48 20 48 44-22 44-48 44-48-20-48-44Z" fill="url(#bluegrad)" opacity="0.98" />
  <path d="M98 184c0-12 12-22 27-22h12l16-32c4-8 12-12 20-11l26 4c10 1 16 8 15 16l-4 21c0 3-2 6-6 7l-15 4-12 3-7 1c-5 1-10-3-10-8v-2Z" fill="url(#bluegrad)" />
  <text x="60" y="340" font-family="Arial, Helvetica, sans-serif" font-size="54" font-weight="800" fill="#0b3b6d">BRAIN-TDS</text>
</svg>
